<?xml version="1.0" encoding="utf-8"?>
<!-- Generator: Adobe Illustrator 22.0.1, SVG Export Plug-In . SVG Version: 6.00 Build 0)  -->
<svg version="1.1" id="Layer_1" xmlns="http://www.w3.org/2000/svg" xmlns:xlink="http://www.w3.org/1999/xlink" x="0px" y="0px"
	 viewBox="0 0 520 468" style="enable-background:new 0 0 520 468;" xml:space="preserve">
<style type="text/css">
	.st0{fill:#5CB85C;}
</style>
<path class="st0" d="M61.4,448.3c-1.3,0-2.7-0.1-4.1-0.4c-15-2.6-23.3-11.7-27.6-18.9c-6.6-11-7.8-23.6-5.5-30.3
	c3.6-10.8,39.7-63,41.3-65.1c1.8-2.4,8.9-10.8,23.2-16c6.1-2.2,21.7-9,36.7-15.5c19.4-8.4,31.4-13.6,34.8-14.6
	c5.7-1.7,17.5-2.5,27-3.1c2.5-0.2,4.7-0.3,6.5-0.4c3.1-0.2,14.9-4.9,28.5-12.1c16.5-8.7,23.6-14.7,24.3-16.6
	c2.6-7.4,6.9-81.1,6.9-90c0-8.8,8.3-14.7,16-14.7c4.2,0,6.6-2,7.4-6.1c2.3-11.6,34.8-36,36.2-37.1C328.4,95.9,415.7,32,420.7,28.3
	c3.9-3.7,11.9-6.6,18.7,0.2c3.3,3.3,10.6,9.4,17,14.7c8.6,7.1,12.2,10.2,13.3,11.7c0.8,1.1,2,2.6,4.9,27.9
	c1.4,12.2,2.6,25.2,2.6,27.9c0,3.7-2.7,11.2-8.7,16.2c-4.9,4.1-10.9,5.6-17.4,4.4c-8.9-1.6-16.9-7.6-20.9-15.6
	c-3.2-6.4-3.4-13.2-0.6-18.8c1.4-2.8,3.2-5.8,4.9-8.6c3.6-5.9,8.1-13.2,5.6-15c-1.5-1.1-2.4-1-3.1-0.9c-1.6,0.4-5.2,2.5-10.4,12.2
	c-5.2,9.7-11.1,26.3-13,32.6c-0.4,1.4-1.5,5.1-55.4,77.5c-26.1,35.1-54.6,72.8-57.5,76c-5.2,5.9-13.5,9.3-22.3,9.3h-0.8
	c-11.1-0.1-24.1,2.4-26.5,22.5c-1.5,12.4-2.8,25.4-3.8,35.7c-1.5,15.2-2.2,22.6-3.1,25c-0.1,0.3-0.2,0.8-0.3,1.3
	c-1.8,7.6-6.2,15.5-26,16.1c-10.7,0.3-35-0.7-58.6-1.8c-24.8-1.1-50.5-2.2-57.1-1.6C90.3,378.5,90,390.6,90,392
	c0,6.4-0.7,39.1-15.4,51.4C70.8,446.7,66.4,448.3,61.4,448.3z M430.1,32.4c-1.8,0-3.2,1.1-4,1.8l-0.4,0.4
	c-0.9,0.7-92.2,67.5-108,79.3c-18.8,14.1-32.3,28.1-33.1,32.3c-1.6,7.9-7.3,12.5-15.3,12.5c-3.3,0-8,2.5-8,6.7
	c0,6.1-4,83.2-7.3,92.7c-1.8,5-11.2,12-27.9,20.9c-11.4,6-26.2,12.7-31.8,13.1c-1.9,0.1-4.2,0.3-6.6,0.4c-8.6,0.5-20.4,1.3-25.2,2.7
	c-3.2,1-18.8,7.7-34,14.3c-15.2,6.6-30.8,13.3-37.1,15.7c-12.5,4.6-18.5,11.9-19.5,13.3c-2.5,3.3-37.1,53.9-40.1,62.9
	c-1.4,4.1-0.8,14.4,4.8,23.7c3.5,5.8,10.1,13.1,22.1,15.1c4.2,0.7,7.8-0.2,10.8-2.7C79.4,429,82,404.9,82,392
	c0-7.7,4.1-21.1,19.6-22.6c7.2-0.7,32,0.4,58.3,1.5c23.4,1,47.6,2.1,58,1.8c16.3-0.5,17.5-5.9,18.5-9.9c0.2-0.7,0.3-1.4,0.5-2
	c0.6-1.8,1.7-12.7,2.7-23.3c1-10.4,2.3-23.4,3.8-35.9c1.5-12.6,6.9-21.3,16-25.9c7.2-3.7,14.8-3.6,18.5-3.6h0.8
	c2.4,0,10.9-0.5,16.3-6.7c6.9-7.8,107.2-142,111.2-150.6c2.1-6.9,8.1-23.7,13.6-33.9c5.2-9.8,10.2-15,15.6-16.2
	c3.3-0.8,6.6,0,9.6,2.2c8.5,6.2,1.8,17-3.5,25.7c-1.6,2.7-3.3,5.5-4.6,8c-1.6,3.3-1.4,7.5,0.6,11.7c2.9,5.8,8.7,10.1,15.2,11.3
	c4.1,0.8,7.8-0.2,10.8-2.7c4.1-3.4,5.8-8.5,5.8-10c0-4.7-4.3-45.5-6.1-51.2c-1.4-1.5-7.2-6.3-11.9-10.1c-6.6-5.5-14-11.6-17.6-15.2
	C432.5,32.8,431.2,32.4,430.1,32.4z M406.2,114.8L406.2,114.8L406.2,114.8z M463.2,59.2L463.2,59.2L463.2,59.2z"/>
</svg>
