<?xml version="1.0" encoding="utf-8"?>
<!-- Generator: Adobe Illustrator 13.0.0, SVG Export Plug-In . SVG Version: 6.00 Build 14948)  -->
<!DOCTYPE svg PUBLIC "-//W3C//DTD SVG 1.1//EN" "http://www.w3.org/Graphics/SVG/1.1/DTD/svg11.dtd">
<svg version="1.1" id="Layer_1" xmlns="http://www.w3.org/2000/svg" xmlns:xlink="http://www.w3.org/1999/xlink" x="0px" y="0px"
	 width="520px" height="468px" viewBox="0 0 520 468" enable-background="new 0 0 520 468" xml:space="preserve">
<rect x="-0.167" y="-0.167" fill="none" width="519.333" height="468"/>
<path fill="none" stroke="#5CB85C" stroke-width="8" d="M52.481,449.502l364.812-0.761c0,0,62.768-4.565,62.768-70.756
	c0-66.191-38.803-79.886-38.803-79.886s-11.031-6.468-36.518,11.412c-25.488,17.879-98.526,63.146-98.526,63.146
	s-27.39,5.327-25.487-16.737c-0.381-12.173,6.087-14.836,6.087-14.836s17.118-10.651-6.468-27.009
	c-23.585-16.357-108.797-92.439-134.284-208.464c-6.087-43.747,40.323-25.107,40.323-25.107s17.499,14.075,28.15,33.856
	c10.652,19.781,21.303,37.28,41.084,34.998c19.78-2.282,20.542-44.888,20.542-44.888s6.086-54.779-29.292-69.995
	c-19.021-6.467-34.617,4.564-76.082-9.891c-41.464-14.455-61.246-5.706-73.419,3.424c-12.172,9.13-30.051,31.955-18.64,62.767
	c11.412,30.813,21.303,56.301,21.303,56.301s6.847,19.781,29.672,34.236c22.824,14.456,37.28,32.335,37.28,32.335
	s20.542,17.879,23.966,58.963c3.423,41.084,14.455,63.909,27.769,80.646c13.315,16.738,38.802,46.41,38.802,46.41
	s15.216,15.597,1.142,28.531c-14.076,12.934-27.771-1.902-27.771-1.902l-28.911-34.237c0,0-15.977-8.75-31.193-1.902
	s-44.507,18.641-80.646,12.554c-27.389-4.564-36.519,0.381-36.519,0.381s-20.542,7.228-18.26,28.53
	C37.265,450.262,52.481,449.502,52.481,449.502z"/>
</svg>
