<?xml version="1.0" encoding="utf-8"?>
<!-- Generator: Adobe Illustrator 19.0.0, SVG Export Plug-In . SVG Version: 6.00 Build 0)  -->
<svg version="1.1" id="Laag_1" xmlns="http://www.w3.org/2000/svg" xmlns:xlink="http://www.w3.org/1999/xlink" x="0px" y="0px"
	 viewBox="-243 218.9 352.6 101" style="enable-background:new -243 218.9 352.6 101;" xml:space="preserve">
<style type="text/css">
	.st0{fill:#0F67F7;}
</style>
<g id="XMLID_28_">
	<path id="XMLID_29_" class="st0" d="M-188,229c-4.3-2.9-10.8-4.4-19.6-4.4c-5.7,0-11.3,0.7-16.7,2c-5.5,1.3-10.2,3.1-14.3,5.4
		c-1.9,1.1-3.1,2.1-3.7,3c-0.5,0.9-0.8,1.9-0.8,3.1c0,0.9,0.2,1.7,0.7,2.3c0.5,0.6,1.1,0.9,2,0.9c1.1,0,2.4-0.5,3.9-1.4
		c3.4-2,7.5-3.7,12.3-5c4.8-1.3,9.8-2,15-2c5.7,0,9.9,0.8,12.7,2.4c2.8,1.6,4.1,3.8,4.1,6.6c0,2.2-0.8,4.2-2.4,5.8
		c-1.6,1.7-3.8,3-6.6,3.9c-2.8,0.9-5.9,1.4-9.3,1.5c-1.5,0-2.6,0.5-3.2,1.4c-0.6,0.9-0.9,2-0.9,3.4c0,1,0.2,1.7,0.6,2.1
		c0.4,0.4,1.1,0.7,2,0.7c4.2,0.1,7.3,0.9,9.1,2.4c1.8,1.4,2.7,3.2,2.7,5.4c0,3-1.6,5.5-4.7,7.5c-3.2,2-8.1,2.9-14.9,2.9
		c-1.4,0-3.3-0.1-5.6-0.3c0.5-5.8,1.4-12,2.7-18.4c1.3-6.4,2.5-11.6,3.8-15.3c0.3-0.9,0.4-1.6,0.4-2.3c0-1.6-1.5-2.5-4.4-2.5
		c-1.6,0-3,0.2-4,0.7c-1,0.5-1.7,1.3-2,2.5c-1.9,6.9-3.5,14.1-4.8,21.5c-1.3,7.4-2.1,14.5-2.5,21.3c-0.1,1.5,0.2,2.6,0.8,3.4
		c0.7,0.8,1.8,1.2,3.6,1.2s3.2-0.3,4.3-1c1.1-0.7,1.7-1.7,1.7-3c1.4,0.1,3.4,0.2,5.8,0.2c6.5,0,12-0.8,16.6-2.3
		c4.6-1.5,8.1-3.7,10.5-6.5c2.4-2.8,3.6-6.1,3.6-9.9c0-2.4-0.8-4.6-2.3-6.4c-1.5-1.9-3.8-3.2-6.8-4c5.6-1.3,9.8-3.4,12.7-6.4
		c2.9-3,4.3-6.5,4.3-10.6C-181.6,235.8-183.7,232-188,229z"/>
	<path id="XMLID_33_" class="st0" d="M108.4,272.5c-0.8-1.4-2-3.2-3.5-5.2c-1.1-1.3-1.8-2.4-2.4-3.3c-0.5-0.9-0.8-1.7-0.8-2.4
		c0-1.2,0.4-2.7,1.3-4.4c0.3-0.6,0.6-1.3,0.8-1.9c0.2-0.6,0.3-1.1,0.3-1.4c0-0.5-0.3-0.9-0.8-1.2c-0.5-0.2-1.5-0.4-2.8-0.4
		c-2.9,0-4.8,1.1-5.7,3.2c-1.4,3.3-2.6,6-3.5,7.9c-0.9,1.9-1.8,3.6-2.6,5c-1,1.6-2.4,3.5-4.1,5.8c-1.5,1.4-3.1,2.6-4.9,3.5
		c-2.8,1.5-5.3,2.3-7.4,2.3c-3.4,0-5.7-1.1-6.9-3.3c5.7-1.4,9.7-3.3,12.1-5.7c2.4-2.4,3.6-5.3,3.6-8.6c0-2.8-0.8-5.1-2.5-6.8
		c-1.7-1.7-3.9-2.5-6.7-2.5c-3.1,0-6,0.8-8.4,2.5c-2.5,1.7-4.4,4-5.8,6.8c-1.4,2.9-2.1,6-2.1,9.3c0,1,0.1,2,0.2,2.9
		c-1,1.1-2,2-2.9,2.6c-1.6,1.3-3.4,1.9-5.5,1.9c-2.6,0-4.4-1-5.6-3c-1.2-2-1.8-5.6-1.8-10.6c0-1.3,0-3.7,0.1-5.7h8.8
		c5.5,0,8.2-1.6,8.2-4.9c0-0.9-0.2-1.4-0.5-1.7c-0.3-0.3-0.9-0.3-1.7-0.3h-8.1c6.3-6,9.4-12.2,9.4-19.7c0-2.7-0.6-5-1.7-6.8
		c-1.2-1.8-2.8-2.7-4.8-2.7c-2.8,0-5.3,1.3-7.7,3.9c-2.4,2.6-4.4,6.2-6.1,10.6c-1.7,4.4-2.9,8.7-3.8,14.7h-4.1
		c-2.2,0-3.3,1.2-3.3,3.9c0,1.2,0.3,1.9,0.8,2.4c0.5,0.5,1.5,0.7,2.9,0.7h2.8c-0.1,2-0.2,4.4-0.2,6.5c0,1.6,0.1,3.2,0.2,4.6
		c-0.2-0.1-0.5-0.2-0.7-0.2c-0.5,0-1,0.2-1.7,0.6c-3.5,2.3-7.1,4.9-10.9,7.7l1.9-11.7c1.3-7.1,1.9-11.2,1.9-12.5
		c0-0.7-0.2-1.2-0.7-1.4c-0.4-0.3-1.2-0.4-2.3-0.4c-1.6,0-2.8,0.3-3.6,0.9c-0.8,0.6-1.4,1.7-1.8,3.1c-1.2,4.3-2.4,7.9-3.6,10.9
		c-1.2,2.9-2.4,5.1-3.5,6.6c-1.1,1.4-2,2.2-2.7,2.2c-1,0-1.5-0.9-1.5-2.8c0-1.2,0.1-2.6,0.4-4.5c0.3-1.8,0.6-3.7,1-5.7
		c0.3-1.4,0.7-3.1,1.2-4.9c0.5-2.2,0.8-3.5,0.8-3.9c0-0.7-0.2-1.2-0.6-1.5c-0.4-0.3-1.1-0.5-2.2-0.5c-1.9,0-3.3,0.3-4.1,0.9
		c-0.9,0.6-1.5,1.7-2,3.1c-0.9,2.9-1.6,5.6-2.1,8.2c-2.2,0.5-4.1,0.8-5.8,0.9c-0.4-3.6-1.6-6.6-3.6-9c-2-2.4-4.7-3.8-7.9-4
		c3.5-4.3,6-8.4,7.5-12.3s2.2-7.8,2.2-11.8c0-3-0.7-5.5-2-7.4c-1.4-1.9-3.1-2.9-5.4-2.9c-4.1,0-7.6,2.6-10.6,7.7
		c-3,5.1-5.2,11.4-6.8,18.7c-1.5,7.3-2.3,14.1-2.3,20.3c0,2.7,0.2,5.1,0.5,7.3c-1.9,2.2-3.4,3.7-4.5,4.7c-1.4,1.2-2.7,1.7-4,1.7
		c-1,0-1.8-0.6-2.5-1.8c-0.7-1.2-1.1-3.2-1.3-6c4.4-7.6,8-15.1,10.6-22.3c2.7-7.2,4-13.6,4-19c0-3.8-0.7-6.7-2.1-8.5
		c-1.4-1.9-3.1-2.8-5.2-2.8c-4.2,0-7.6,3.3-10.2,10c-2.6,6.6-4.3,14.6-5.2,24c-3.6,0.4-6.8,1.6-9.7,3.7c-2.9,2.1-5.1,4.8-6.8,8.1
		c-1.6,3.2-2.4,6.7-2.5,10.4c-1,1-1.8,1.9-2.5,2.5c-1.3,1.2-2.5,1.8-3.4,1.8c-1.4,0-2.1-1-2.1-2.9c0-1.3,0.5-4.1,1.4-8.3
		c1.1-4.9,1.6-8.3,1.6-10.2c0-3.1-1.6-4.7-4.7-4.7c-1.6,0-3.3,0.6-5.3,1.7c-1.9,1.1-3.9,3-5.8,5.6c-2,2.6-3.8,6-5.4,10.1
		c0.2-2.1,0.4-3.9,0.7-5.4c0.3-1.4,0.7-3.1,1.2-5.1c0.7-2.7,1.1-4.4,1.1-5.2c0-0.7-0.2-1.1-0.6-1.4c-0.4-0.2-1.1-0.4-2-0.4
		c-1.8,0-3.2,0.3-4.2,1c-1,0.7-1.7,1.7-2.1,3.1c-1.7,5.2-2.5,10.8-2.7,16.6c-1.4,1.6-2.6,2.9-3.6,3.8c-1.3,1.2-2.4,1.8-3.3,1.8
		c-0.6,0-1.1-0.2-1.4-0.7c-0.4-0.4-0.5-1-0.5-1.7c0-2.2,0.6-6,1.7-11.6c0.7-3.8,1.1-6.2,1.1-7.2c0-1.7-1.2-2.5-3.5-2.5
		c-1.1,0-2.2,0.1-3.2,0.3c-0.2-1.1-0.5-1.8-0.9-2.2c-0.4-0.4-1.1-0.6-2.1-0.6c-3.3,0-6.5,1.1-9.5,3.2c-3,2.1-5.3,4.9-7.1,8.3
		c-0.5,0.9-0.9,1.9-1.3,2.9c-1.1,0.8-2.1,1.2-2.9,1.2c-1.2,0-1.8-0.8-1.8-2.5c0-0.5,0.2-1.7,0.6-3.6c0.4-2.4,0.7-3.9,0.7-4.6
		c0-3.1-1.6-4.7-4.7-4.7c-1.6,0-3.3,0.6-5.3,1.7c-1.9,1.1-3.9,3-5.8,5.6c-2,2.6-3.8,6-5.4,10.1c0.2-2.1,0.4-3.9,0.7-5.4
		c0.3-1.4,0.7-3.1,1.2-5.1c0.7-2.7,1.1-4.4,1.1-5.2c0-0.7-0.2-1.1-0.6-1.4c-0.4-0.2-1.1-0.4-2-0.4c-1.8,0-3.2,0.3-4.2,1
		c-1,0.7-1.7,1.7-2.1,3.1c-1.8,5.6-2.7,11.6-2.7,17.9c0,4.2,0.4,7.3,1.1,9.3c0.7,1.9,2,2.9,3.9,2.9c1.5,0,2.6-0.4,3.3-1.2
		c0.7-0.8,1.3-2.3,1.8-4.6c0.7-2.9,1.7-5.7,2.8-8.4c1.2-2.7,2.3-4.8,3.5-6.4c1.2-1.6,2.1-2.4,2.9-2.4c0.5,0,0.8,0.4,0.8,1.2
		c0,0.3,0,1-0.1,2c-0.1,0.7-0.2,1.4-0.2,2.2c0,2.2,0.7,4,2,5.3c1.3,1.3,3.3,2,5.8,2c1.5,0,2.9-0.3,4.3-0.8c0.1,3.3,1,6,2.7,8
		c1.8,2.2,4.2,3.3,7.2,3.3c3.8,0,7-2,9.5-6.1c0.7,1.9,1.7,3.4,3,4.5c1.3,1.1,2.8,1.6,4.4,1.6c2.1,0,4.2-0.8,6.4-2.5
		c0.9-0.7,1.7-1.4,2.6-2.2c0.1,0.7,0.3,1.3,0.5,1.8c0.7,1.9,2,2.9,3.9,2.9c1.5,0,2.6-0.4,3.3-1.2c0.7-0.8,1.3-2.3,1.8-4.6
		c0.7-2.9,1.7-5.7,2.9-8.4c1.2-2.7,2.3-4.8,3.5-6.4c1.1-1.6,2-2.4,2.6-2.4c0.5,0,0.8,0.4,0.8,1.2c0,1.2-0.3,3.3-0.9,6.3
		c-0.7,3.5-1,5.9-1,7.2c0,2.7,0.6,4.8,1.9,6.2c1.3,1.4,3.1,2.1,5.6,2.1c3,0,5.8-0.8,8.1-2.5c1-0.7,2-1.5,3-2.4
		c0.3,0.6,0.7,1.1,1.1,1.6c1.9,2.2,4.3,3.3,7.3,3.3c2,0,3.8-0.4,5.3-1.3c1.5-0.9,3.3-2.6,5.3-5.1c1.9,4.3,4.7,6.4,8.4,6.4
		c2.3,0,4.7-0.9,7-2.6c1.8-1.3,3.5-2.8,5.1-4.5c0.2,0.5,0.5,1,0.8,1.5c2.2,3.7,5.8,5.6,10.6,5.6c3.2,0,6.2-1.2,8.9-3.7
		S-13,278-12,274c1.9-0.1,3.8-0.3,5.5-0.7c-0.1,1.2-0.1,2.3-0.1,3.6c0,3,0.7,5.5,2.1,7.5c1.4,2,3.1,3,5.3,3c1.9,0,3.8-0.9,5.5-2.7
		c1.7-1.8,3.1-4.5,4.1-7.9c-0.4,3.3-0.8,5.9-1.2,7.7L9,286.1c-5.2,4-9.2,7.5-12,10.5c-2.8,3.1-4.8,5.8-5.8,8.1c-1,2.4-1.6,4.7-1.6,7
		c0,2.5,0.8,4.5,2.3,6c1.5,1.5,3.5,2.3,6,2.3c4.6,0,8.4-2.9,11.3-8.6c3-5.7,5.4-13.6,7.2-23.6l13.9-9.3c0.7-0.5,1.3-1,1.6-1.7
		c0.1-0.1,0.1-0.2,0.1-0.3c2,7.2,6.5,10.9,13.6,10.9c3.2,0,6-0.8,8.5-2.5c1.4-0.9,2.8-2.1,4-3.3c0.4,0.6,0.9,1.1,1.4,1.6
		c2.8,2.8,6.7,4.1,11.8,4.1c3.7,0,7.2-0.9,10.5-2.8c0.8-0.4,1.5-0.9,2.2-1.3c0.7-0.2,1.3-0.6,2-1.2c0.3-0.3,0.7-0.7,1-1
		c0.9-0.8,1.7-1.6,2.4-2.4c0.2-0.3,0.4-0.6,0.6-0.9c0.3-0.3,0.5-0.6,0.8-0.9c1.5-1.9,3-4.2,4.5-7.1c0.7,0.8,1.4,1.7,2.2,2.7
		c0.8,1,1.4,2.1,1.9,3.2c0.5,1.1,0.8,2.3,0.8,3.5c-0.4,0-1.1-0.1-1.9-0.3c-0.8-0.1-1.6-0.2-2.2-0.2c-1.8,0-3.1,0.5-4.1,1.4
		c-0.9,0.9-1.4,2-1.4,3.3c0,1.4,0.7,2.8,2,3.9c1.3,1.2,3.2,1.7,5.8,1.7c2.2,0,4.1-0.6,5.8-1.7c1.7-1.1,3-2.6,3.9-4.4
		c0.9-1.8,1.4-3.7,1.4-5.8C109.6,275.5,109.2,273.9,108.4,272.5z M42.8,241c0.8-3.2,1.6-5.7,2.5-7.5c0.9-1.8,1.7-2.7,2.4-2.7
		c1.1,0,1.6,1.4,1.6,4.3c0,2.5-0.7,5.3-2.1,8.4c-1.4,3.1-3.6,5.8-6.4,8.3C41.3,247.8,42,244.2,42.8,241z M-50.7,243.7
		c0.7-5.3,1.4-9.5,2.4-12.8c0.9-3.3,1.8-4.9,2.8-4.9c0.4,0,0.8,0.5,1.1,1.5s0.5,2.4,0.5,4.3c0,7.1-2.7,16.6-8.1,28.4
		C-51.8,254.5-51.3,249-50.7,243.7z M-131.5,273.2c-0.4,2.1-1.1,3.7-2.1,5c-1,1.3-2,1.9-3,1.9c-1.1,0-1.9-0.4-2.5-1.1
		c-0.6-0.7-0.9-1.8-0.9-3.3c0-2.7,0.5-5.3,1.5-7.7c1-2.4,2.4-4.4,4.1-5.8c1.7-1.5,3.6-2.2,5.6-2.3L-131.5,273.2z M-63.7,278.9
		c-0.9,0.7-1.8,1.1-2.8,1.1c-2.4,0-3.6-1.8-3.6-5.3c0-3.3,0.9-6.4,2.6-9.1c1.8-2.7,4-4.5,6.6-5.3c-0.1,2.6-0.1,4.5-0.1,5.6
		c0,3.2,0.2,6.2,0.7,8.8C-61.6,276.8-62.8,278.2-63.7,278.9z M-28.6,242.1c1-4.9,2-8.8,3.1-11.7c1.1-2.9,2.2-4.3,3.1-4.3
		c0.6,0,1.1,0.4,1.5,1.2c0.4,0.8,0.5,2,0.5,3.5c0,3.5-1,7.4-2.9,11.9c-1.9,4.5-4.5,9.6-7.6,15.5C-30.3,252.4-29.6,247-28.6,242.1z
		 M-22.1,277.8c-1.2,1.3-2.5,1.9-4,1.9c-1.4,0-2.6-0.7-3.7-2.2c-1-1.4-1.6-3.5-1.6-6.3c0-3.3,0.7-6.1,2-8.1c1.3-2,3-3.2,5-3.2h0.2
		c-0.2,1-0.3,2.3-0.3,3c0,1.8,0.4,3.7,1.2,5.3c0.8,1.6,1.9,3,3.4,4C-20.2,274.7-20.9,276.6-22.1,277.8z M2.8,308.7
		c-1.5,2.8-2.8,4.2-4.1,4.2c-0.7,0-1.2-0.3-1.6-0.8s-0.5-1.2-0.5-2c0-1.9,0.8-4.2,2.5-6.8c1.7-2.6,4.4-5.4,8.1-8.6
		C5.8,301.3,4.3,305.9,2.8,308.7z M64,271c0-2.9,0.7-5.5,2-7.5c1.2-2.1,2.8-3.1,4.6-3.1c0.9,0,1.6,0.3,2.1,0.8
		c0.5,0.6,0.8,1.3,0.8,2.2c0,1.8-0.9,3.4-2.6,4.7c-1.6,1.4-3.8,2.4-6.8,3V271z"/>
</g>
</svg>
